<?xml version="1.0" encoding="utf-8"?>
<!-- Generator: Adobe Illustrator 15.1.0, SVG Export Plug-In . SVG Version: 6.00 Build 0)  -->
<!DOCTYPE svg PUBLIC "-//W3C//DTD SVG 1.1//EN" "http://www.w3.org/Graphics/SVG/1.1/DTD/svg11.dtd">
<svg version="1.1" id="Layer_1" xmlns="http://www.w3.org/2000/svg" xmlns:xlink="http://www.w3.org/1999/xlink" x="0px" y="0px"
	 width="300px" height="76.833px" viewBox="0 0 300 76.833" enable-background="new 0 0 300 76.833" xml:space="preserve">
<path fill="none" stroke="#C5E3DC" stroke-width="3" stroke-miterlimit="10" d="M294.121,194.904"/>
<path fill="#ED5E6B" stroke="#C5E3DC" stroke-width="3" stroke-miterlimit="10" d="M89.091,18.904"/>
<g>
	<path fill="#ED5E6B" d="M40.75,12.637"/>
</g>
<line fill="#ED5E6B" stroke="#AADBCB" stroke-miterlimit="10" x1="202.922" y1="9.889" x2="202.922" y2="9.889"/>
<g>
	<path fill="#9AD5C1" d="M6.229,71.252H2.853v-6.506h0.762v5.817h2.613V71.252z"/>
	<path fill="#9AD5C1" d="M13.156,71.252h-0.762v-6.506h0.762V71.252z"/>
	<path fill="#9AD5C1" d="M23.481,71.252h-3.448v-6.506h3.303v0.689h-2.541V67.6h2.35v0.685h-2.35v2.278h2.686V71.252z"/>
	<path fill="#9AD5C1" d="M33.203,65.435h-2.541v2.25h2.35v0.685h-2.35v2.881H29.9v-6.506h3.303V65.435z"/>
	<path fill="#9AD5C1" d="M39.604,71.252v-6.506H41.4c2.292,0,3.439,1.057,3.439,3.171c0,1.004-0.318,1.811-0.955,2.421
		c-0.637,0.609-1.489,0.914-2.557,0.914H39.604z M40.366,65.435v5.127h0.971c0.853,0,1.517-0.229,1.992-0.686
		c0.475-0.457,0.712-1.104,0.712-1.942c0-1.667-0.886-2.5-2.659-2.5H40.366z"/>
	<path fill="#9AD5C1" d="M54.734,71.252h-3.448v-6.506h3.303v0.689h-2.541V67.6h2.35v0.685h-2.35v2.278h2.686V71.252z"/>
	<path fill="#9AD5C1" d="M73.701,64.746l-2.409,6.506h-0.839l-2.359-6.506h0.849l1.801,5.159c0.058,0.167,0.101,0.358,0.131,0.576
		h0.019c0.024-0.181,0.074-0.376,0.149-0.585l1.838-5.15H73.701z"/>
	<path fill="#9AD5C1" d="M82.371,71.361c-0.923,0-1.662-0.304-2.216-0.912c-0.555-0.608-0.833-1.399-0.833-2.373
		c0-1.046,0.283-1.881,0.849-2.504s1.335-0.935,2.31-0.935c0.898,0,1.622,0.302,2.171,0.907c0.549,0.605,0.824,1.396,0.824,2.373
		c0,1.062-0.281,1.901-0.844,2.518C84.067,71.052,83.314,71.361,82.371,71.361z M82.425,65.326c-0.684,0-1.238,0.247-1.665,0.74
		c-0.426,0.493-0.64,1.14-0.64,1.942s0.208,1.447,0.624,1.935c0.416,0.489,0.958,0.733,1.626,0.733c0.714,0,1.276-0.233,1.688-0.699
		c0.411-0.466,0.617-1.118,0.617-1.956c0-0.859-0.2-1.523-0.599-1.992C83.677,65.561,83.126,65.326,82.425,65.326z"/>
	<path fill="#9AD5C1" d="M94.542,71.361c-0.923,0-1.662-0.304-2.216-0.912c-0.555-0.608-0.833-1.399-0.833-2.373
		c0-1.046,0.283-1.881,0.849-2.504s1.335-0.935,2.31-0.935c0.898,0,1.622,0.302,2.171,0.907c0.549,0.605,0.824,1.396,0.824,2.373
		c0,1.062-0.281,1.901-0.844,2.518C96.239,71.052,95.486,71.361,94.542,71.361z M94.597,65.326c-0.684,0-1.238,0.247-1.665,0.74
		c-0.426,0.493-0.64,1.14-0.64,1.942s0.208,1.447,0.624,1.935c0.416,0.489,0.958,0.733,1.626,0.733c0.714,0,1.276-0.233,1.688-0.699
		c0.411-0.466,0.617-1.118,0.617-1.956c0-0.859-0.2-1.523-0.599-1.992C95.849,65.561,95.298,65.326,94.597,65.326z"/>
	<path fill="#9AD5C1" d="M108.756,71.252h-0.907l-1.089-1.824c-0.1-0.169-0.197-0.314-0.291-0.434s-0.19-0.217-0.288-0.292
		s-0.204-0.131-0.317-0.166c-0.114-0.035-0.242-0.052-0.384-0.052h-0.626v2.768h-0.762v-6.506h1.942
		c0.284,0,0.547,0.036,0.787,0.106c0.241,0.071,0.449,0.179,0.626,0.325c0.177,0.145,0.315,0.326,0.415,0.542
		c0.1,0.216,0.149,0.47,0.149,0.76c0,0.227-0.034,0.435-0.102,0.624c-0.068,0.189-0.165,0.358-0.29,0.506
		c-0.125,0.148-0.277,0.274-0.454,0.379c-0.177,0.104-0.375,0.186-0.596,0.243v0.019c0.109,0.048,0.203,0.104,0.283,0.166
		s0.157,0.135,0.229,0.22c0.072,0.085,0.144,0.181,0.215,0.288c0.071,0.107,0.15,0.232,0.238,0.375L108.756,71.252z M104.854,65.435
		v2.359h1.035c0.19,0,0.367-0.029,0.528-0.086c0.162-0.058,0.302-0.14,0.42-0.248c0.118-0.107,0.21-0.239,0.277-0.395
		c0.066-0.156,0.1-0.331,0.1-0.524c0-0.348-0.113-0.62-0.338-0.814c-0.226-0.195-0.551-0.293-0.978-0.293H104.854z"/>
	<path fill="#9AD5C1" d="M127.564,71.252h-0.844l-0.689-1.824h-2.759l-0.649,1.824h-0.849l2.496-6.506h0.79L127.564,71.252z
		 M125.781,68.743l-1.021-2.772c-0.034-0.091-0.067-0.236-0.1-0.436h-0.018c-0.03,0.185-0.065,0.33-0.104,0.436l-1.012,2.772
		H125.781z"/>
	<path fill="#9AD5C1" d="M137.064,71.252h-3.375v-6.506h0.762v5.817h2.613V71.252z"/>
	<path fill="#9AD5C1" d="M146.604,71.252h-3.375v-6.506h0.762v5.817h2.613V71.252z"/>
	<path fill="#9AD5C1" d="M156.217,71.252h-3.448v-6.506h3.303v0.689h-2.541V67.6h2.35v0.685h-2.35v2.278h2.686V71.252z"/>
	<path fill="#9AD5C1" d="M162.332,70.989V70.09c0.103,0.091,0.226,0.172,0.37,0.245c0.144,0.073,0.295,0.134,0.454,0.184
		c0.159,0.05,0.318,0.088,0.479,0.116c0.161,0.027,0.309,0.041,0.445,0.041c0.469,0,0.819-0.087,1.05-0.261
		c0.231-0.174,0.347-0.424,0.347-0.751c0-0.175-0.039-0.328-0.116-0.458c-0.077-0.13-0.184-0.249-0.32-0.356
		s-0.297-0.21-0.483-0.309s-0.386-0.202-0.601-0.311c-0.227-0.115-0.438-0.231-0.635-0.349c-0.197-0.118-0.368-0.248-0.513-0.39
		s-0.259-0.303-0.343-0.483c-0.083-0.18-0.125-0.391-0.125-0.633c0-0.296,0.065-0.554,0.195-0.774c0.13-0.219,0.301-0.4,0.513-0.542
		c0.211-0.142,0.453-0.248,0.724-0.317c0.271-0.07,0.546-0.104,0.828-0.104c0.642,0,1.109,0.077,1.402,0.231v0.857
		c-0.384-0.266-0.877-0.399-1.479-0.399c-0.167,0-0.333,0.018-0.5,0.052c-0.166,0.035-0.314,0.092-0.444,0.17
		c-0.13,0.079-0.236,0.18-0.318,0.304c-0.082,0.124-0.123,0.275-0.123,0.454c0,0.167,0.031,0.31,0.093,0.431
		s0.153,0.231,0.274,0.332c0.121,0.1,0.269,0.196,0.442,0.29s0.375,0.197,0.601,0.309c0.233,0.115,0.454,0.236,0.663,0.363
		c0.208,0.127,0.392,0.268,0.549,0.422s0.282,0.325,0.375,0.513s0.138,0.402,0.138,0.644c0,0.321-0.063,0.592-0.188,0.814
		s-0.295,0.403-0.508,0.542s-0.459,0.24-0.737,0.302c-0.278,0.062-0.572,0.093-0.88,0.093c-0.103,0-0.23-0.008-0.381-0.025
		c-0.151-0.017-0.306-0.041-0.463-0.073s-0.306-0.071-0.447-0.118S162.417,71.046,162.332,70.989z"/>
	<path fill="#9AD5C1" d="M180.451,71.252v-6.506h1.797c2.293,0,3.439,1.057,3.439,3.171c0,1.004-0.318,1.811-0.955,2.421
		c-0.637,0.609-1.489,0.914-2.557,0.914H180.451z M181.214,65.435v5.127h0.971c0.854,0,1.518-0.229,1.992-0.686
		c0.475-0.457,0.712-1.104,0.712-1.942c0-1.667-0.886-2.5-2.658-2.5H181.214z"/>
	<path fill="#9AD5C1" d="M197.021,71.252h-0.845l-0.689-1.824h-2.759l-0.648,1.824h-0.849l2.496-6.506h0.789L197.021,71.252z
		 M195.237,68.743l-1.021-2.772c-0.033-0.091-0.066-0.236-0.1-0.436h-0.018c-0.03,0.185-0.065,0.33-0.104,0.436l-1.012,2.772
		H195.237z"/>
	<path fill="#9AD5C1" d="M206.324,65.435h-1.878v5.817h-0.763v-5.817h-1.874v-0.689h4.515V65.435z"/>
	<path fill="#9AD5C1" d="M224.47,64.927l-3.811,5.635h3.72v0.689h-4.859v-0.213l3.78-5.604h-3.476v-0.689h4.646V64.927z"/>
	<path fill="#9AD5C1" d="M233.312,71.361c-0.923,0-1.661-0.304-2.217-0.912c-0.555-0.608-0.832-1.399-0.832-2.373
		c0-1.046,0.282-1.881,0.849-2.504c0.565-0.623,1.335-0.935,2.309-0.935c0.898,0,1.622,0.302,2.172,0.907
		c0.549,0.605,0.823,1.396,0.823,2.373c0,1.062-0.281,1.901-0.844,2.518C235.009,71.052,234.255,71.361,233.312,71.361z
		 M233.366,65.326c-0.684,0-1.239,0.247-1.665,0.74c-0.427,0.493-0.641,1.14-0.641,1.942s0.208,1.447,0.624,1.935
		c0.416,0.489,0.958,0.733,1.627,0.733c0.714,0,1.276-0.233,1.688-0.699s0.617-1.118,0.617-1.956c0-0.859-0.199-1.523-0.599-1.992
		C234.618,65.561,234.067,65.326,233.366,65.326z"/>
	<path fill="#9AD5C1" d="M246.311,71.252h-3.449v-6.506h3.304v0.689h-2.541V67.6h2.351v0.685h-2.351v2.278h2.687V71.252z"/>
	<path fill="#9AD5C1" d="M256.594,65.435h-1.878v5.817h-0.763v-5.817h-1.874v-0.689h4.515V65.435z"/>
	<path fill="#9AD5C1" d="M271.256,71.252h-0.763v-6.506h0.763V71.252z"/>
	<path fill="#9AD5C1" d="M277.828,70.989V70.09c0.103,0.091,0.227,0.172,0.37,0.245s0.295,0.134,0.453,0.184
		c0.159,0.05,0.318,0.088,0.479,0.116c0.16,0.027,0.309,0.041,0.444,0.041c0.469,0,0.819-0.087,1.051-0.261
		c0.23-0.174,0.347-0.424,0.347-0.751c0-0.175-0.039-0.328-0.116-0.458c-0.077-0.13-0.184-0.249-0.319-0.356
		s-0.297-0.21-0.483-0.309c-0.186-0.098-0.387-0.202-0.602-0.311c-0.227-0.115-0.438-0.231-0.635-0.349
		c-0.196-0.118-0.367-0.248-0.513-0.39s-0.26-0.303-0.343-0.483c-0.083-0.18-0.125-0.391-0.125-0.633
		c0-0.296,0.065-0.554,0.195-0.774c0.13-0.219,0.301-0.4,0.513-0.542s0.453-0.248,0.724-0.317c0.271-0.07,0.547-0.104,0.828-0.104
		c0.642,0,1.108,0.077,1.402,0.231v0.857c-0.384-0.266-0.877-0.399-1.479-0.399c-0.166,0-0.333,0.018-0.499,0.052
		s-0.314,0.092-0.444,0.17s-0.236,0.18-0.317,0.304c-0.082,0.124-0.123,0.275-0.123,0.454c0,0.167,0.031,0.31,0.093,0.431
		c0.063,0.121,0.154,0.231,0.275,0.332c0.12,0.1,0.268,0.196,0.442,0.29c0.174,0.094,0.374,0.197,0.601,0.309
		c0.233,0.115,0.454,0.236,0.662,0.363c0.209,0.127,0.393,0.268,0.55,0.422s0.281,0.325,0.374,0.513
		c0.092,0.188,0.139,0.402,0.139,0.644c0,0.321-0.063,0.592-0.188,0.814c-0.126,0.222-0.295,0.403-0.509,0.542
		c-0.213,0.139-0.459,0.24-0.737,0.302c-0.278,0.062-0.571,0.093-0.88,0.093c-0.103,0-0.229-0.008-0.381-0.025
		s-0.306-0.041-0.463-0.073s-0.307-0.071-0.447-0.118S277.913,71.046,277.828,70.989z"/>
	<path fill="#9AD5C1" d="M288.703,71.333c-0.139,0-0.258-0.048-0.356-0.145c-0.098-0.097-0.147-0.215-0.147-0.354
		s0.05-0.258,0.147-0.356c0.099-0.099,0.218-0.147,0.356-0.147c0.136,0,0.254,0.049,0.354,0.147c0.101,0.098,0.15,0.217,0.15,0.356
		s-0.05,0.257-0.15,0.354C288.957,71.285,288.839,71.333,288.703,71.333z M289.084,64.746l-0.086,4.673h-0.612l-0.082-4.673H289.084
		z"/>
</g>
<g>
	<path fill="#ED5E6B" d="M41.389,8.838l-25.914,39.45c6.585-2.317,17.805-2.744,23.719,0.061l-5.488,6.281
		c-7.195-3.171-21.341-1.83-31.829,0.121c9.39-13.414,18.231-27.804,27.316-41.279H11.451l2.805-4.634H41.389z"/>
	<path fill="#ED5E6B" d="M70.835,55.117c-1.646-0.061-3.231-0.549-4.878-1.342c-1.646-0.914-3.17-2.195-4.024-4.146
		c-7.073,7.683-18.414,7.073-21.341-0.609c-0.488-1.281-0.732-2.988-0.61-4.878c1.098-20.305,19.878-24.573,25.67-16.037
		c4.39-4.573,10.426-5.244,13.963-2.805c3.598,2.622,4.085,7.378,2.378,10.915c-2.622,5.305-8.17,7.256-13.963,7.012
		c0.122,1.097,0.305,2.073,0.61,2.866c0.427,1.219,1.036,2.195,1.707,2.927c0.854,0.915,1.707,1.463,2.5,1.707
		c4.329,1.524,8.415-4.207,10.67-7.561l0.976,1.951C81.871,50.422,76.627,55.239,70.835,55.117z M53.762,36.215l3.354-4.208
		c0.793,0.732,1.646,1.342,2.5,1.708c-1.341-7.683-8.719-10.244-11.829,5.792c-0.427,2.561-0.366,4.695,0.061,6.402
		c3.049,11.28,9.878,3.049,11.707-6.463c0-0.061,0.061-0.122,0.061-0.183C57.665,38.837,55.713,37.861,53.762,36.215z
		 M67.969,40.422c10.854,0.244,11.036-11.707,9.146-12.865c-5.061-3.11-8.658,7.744-9.085,12.134
		C68.03,39.874,67.969,40.179,67.969,40.422z"/>
	<path fill="#ED5E6B" d="M103.634,44.02c-4.878,13.048-22.865,16.524-19.451-0.244l3.231-15.853h-3.658l1.524-3.72h2.927
		l1.646-7.926l8.659-1.708l-1.891,9.634h4.939l-1.768,3.72h-3.841l-4.085,20.243c-1.402,7.134,7.256,1.83,9.329-4.146H103.634z"/>
</g>
<path fill="#ED5E6B" d="M129.023,25.601l-3.925,4.847c-4.86-3.563-10.938,0.892-13.995,5.91l-3.355,17.448h-8.456l6.056-30.199
	h8.209l-1.258,6.583C116.079,23.848,121.173,20.89,129.023,25.601z"/>
<path fill="#ED5E6B" d="M148.714,43.428c-4.675,8.697-9.588,10.927-16.424,10.747c-11.324-0.369-11.507-14.803-5.93-23.743
	c4.552-7.134,12.347-8.633,15.76-5.739c3.057,2.483,3.119,7.069,1.32,10.632c-2.7,5.009-7.731,6.889-12.886,6.7
	c0.058,2.906,1.142,6.286,3.717,7.556c4.614,2.176,9.469-1.449,12.283-6.152H148.714z M130.738,39.191
	c9.462,0.307,10.543-11.172,9.048-12.385c-1.2-0.908-3.837,0.243-5.996,3.688c-1.259,1.934-2.338,4.65-2.994,8.031
	C130.796,38.77,130.738,39.012,130.738,39.191z"/>
<path fill="#ED5E6B" d="M171.806,43.428c-3.539,6.225-8.87,10.505-15.466,10.747c-8.691,0.359-11.267-7.798-9.587-16.008
	c1.136-5.802,4.314-11.783,9.708-14.022c3.177-1.322,6.296-1.08,8.389,0.611c3.061,2.42,3.658,7.186,1.859,10.568
	c-0.24,0.54-0.54,0.962-0.839,1.447l-2.757-4.894c1.379-2.652,1.199-4.585,0.478-5.071c-0.719-0.475-1.978-0.298-3.298,0.666
	c-3.412,2.48-5.152,7.428-5.75,11.297c-0.898,6.222,0.658,9.848,3.416,10.936c4.314,1.691,8.689-2.536,11.624-6.277H171.806z"/>
<path fill="#ED5E6B" d="M195.373,43.428c-4.682,8.697-9.593,10.927-16.426,10.747c-11.328-0.369-11.506-14.803-5.934-23.743
	c4.557-7.134,12.346-8.633,15.764-5.739c3.057,2.483,3.119,7.069,1.32,10.632c-2.699,5.009-7.732,6.889-12.885,6.7
	c0.058,2.906,1.139,6.286,3.713,7.556c4.618,2.176,9.472-1.449,12.287-6.152H195.373z M177.391,39.191
	c9.469,0.307,10.549-11.172,9.055-12.385c-1.206-0.908-3.838,0.243-6.002,3.688c-1.259,1.934-2.334,4.65-2.994,8.031
	C177.449,38.77,177.391,39.012,177.391,39.191z"/>
<path fill="#ED5E6B" d="M241.729,43.238c-4.804,12.925-22.478,16.368-19.126-0.243l3.182-15.702h-3.598l1.496-3.687h2.877
	l1.615-7.853l8.518-1.691l-1.86,9.544h4.854l-1.735,3.687h-3.774l-4.02,20.057c-1.381,7.067,7.129,1.806,9.168-4.111H241.729z"/>
<path fill="#ED5E6B" d="M263.309,43.428c-4.677,8.697-9.582,10.927-16.42,10.747c-11.327-0.369-11.507-14.803-5.93-23.743
	c4.561-7.134,12.35-8.633,15.759-5.739c3.056,2.483,3.119,7.069,1.321,10.632c-2.694,5.009-7.732,6.889-12.887,6.7
	c0.063,2.906,1.136,6.286,3.713,7.556c4.62,2.176,9.475-1.449,12.289-6.152H263.309z M245.332,39.191
	c9.469,0.307,10.548-11.172,9.044-12.385c-1.187-0.908-3.833,0.243-5.988,3.688c-1.262,1.934-2.332,4.65-2.999,8.031
	C245.389,38.77,245.332,39.012,245.332,39.191z"/>
<path fill="#ED5E6B" d="M296.827,43.238c-5.267,13.888-21.507,15.405-18.876-0.369c0.84-4.217,1.616-8.444,2.401-12.68
	c1.32-6.943-6.775-1.988-8.995,3.57l-3.774,20.046h-8.51l6.047-30.199h8.213l-0.899,4.53c6.474-7.364,17.861-7.131,15.344,6.467
	c-1.437,7.482-1.07,5.308-2.4,12.682c-1.312,7.429,7.193,1.809,9.12-4.047c0,0,0.657-1.386,1.633-1.271
	C297.181,42.091,296.827,43.238,296.827,43.238z"/>
<g>
	<path fill="#ED5E6B" d="M205.211,25.37l0.362-1.87h-8.452l-8.12,40h8.416l2.578-11.987c1.321,1.448,4.975,2.662,7.433,2.662
		c2.34,0,4.435-0.792,6.056-2.113c1.557-1.089,2.699-2.537,3.597-4.289c1.855-3.329,2.761-7.4,2.816-11.26
		C219.954,28.175,214.563,19.028,205.211,25.37z M211.265,40.28c-0.539,2.894-1.562,5.559-2.756,7.247
		c-1.977,2.781-5.153,4.111-7.791,0.541l3.958-19.688C212.702,22.939,212.346,34.479,211.265,40.28z"/>
</g>
</svg>
