<?xml version="1.0" encoding="utf-8"?>
<!-- Generator: Adobe Illustrator 15.1.0, SVG Export Plug-In . SVG Version: 6.00 Build 0)  -->
<!DOCTYPE svg PUBLIC "-//W3C//DTD SVG 1.1//EN" "http://www.w3.org/Graphics/SVG/1.1/DTD/svg11.dtd">
<svg version="1.1" id="Layer_1" xmlns="http://www.w3.org/2000/svg" xmlns:xlink="http://www.w3.org/1999/xlink" x="0px" y="0px"
	 width="300px" height="76.833px" viewBox="0 0 300 76.833" enable-background="new 0 0 300 76.833" xml:space="preserve">
<path fill="none" stroke="#C5E3DC" stroke-width="3" stroke-miterlimit="10" d="M294.121,194.904"/>
<path fill="#ED5E6B" stroke="#C5E3DC" stroke-width="3" stroke-miterlimit="10" d="M89.091,18.904"/>
<g>
	<path fill="#ED5E6B" d="M40.75,12.637"/>
</g>
<line fill="#ED5E6B" stroke="#AADBCB" stroke-miterlimit="10" x1="202.922" y1="9.889" x2="202.922" y2="9.889"/>
<text transform="matrix(1 0 0 1 2 71.252)" fill="#9AD5C1" font-family="'Gisha'" font-size="9.2923" letter-spacing="5">liefde voor alles dat zoet is!</text>
<g>
	<text transform="matrix(1 0 0 1 2 54.6904)" fill="#ED5E6B" font-family="'BlendaScript'" font-size="60.9672">Zoet</text>
	<path fill="#ED5E6B" d="M129.023,25.601l-3.925,4.847c-4.86-3.563-10.938,0.892-13.995,5.91l-3.355,17.448h-8.456l6.056-30.199
		h8.209l-1.258,6.583C116.079,23.848,121.173,20.89,129.023,25.601z"/>
	<path fill="#ED5E6B" d="M148.714,43.428c-4.675,8.697-9.588,10.927-16.424,10.747c-11.324-0.369-11.507-14.803-5.93-23.743
		c4.552-7.134,12.347-8.633,15.76-5.739c3.057,2.483,3.119,7.069,1.32,10.632c-2.7,5.009-7.731,6.889-12.886,6.7
		c0.058,2.906,1.142,6.286,3.717,7.556c4.614,2.176,9.469-1.449,12.283-6.152H148.714z M130.738,39.191
		c9.462,0.307,10.543-11.172,9.048-12.385c-1.2-0.908-3.837,0.243-5.996,3.688c-1.259,1.934-2.338,4.65-2.994,8.031
		C130.796,38.77,130.738,39.012,130.738,39.191z"/>
	<path fill="#ED5E6B" d="M171.806,43.428c-3.539,6.225-8.87,10.505-15.466,10.747c-8.691,0.359-11.267-7.798-9.587-16.008
		c1.136-5.802,4.314-11.783,9.708-14.022c3.177-1.322,6.296-1.08,8.389,0.611c3.061,2.42,3.658,7.186,1.859,10.568
		c-0.24,0.54-0.54,0.962-0.839,1.447l-2.757-4.894c1.379-2.652,1.199-4.585,0.478-5.071c-0.719-0.475-1.978-0.298-3.298,0.666
		c-3.412,2.48-5.152,7.428-5.75,11.297c-0.898,6.222,0.658,9.848,3.416,10.936c4.314,1.691,8.689-2.536,11.624-6.277H171.806z"/>
	<path fill="#ED5E6B" d="M195.373,43.428c-4.682,8.697-9.593,10.927-16.426,10.747c-11.328-0.369-11.506-14.803-5.934-23.743
		c4.557-7.134,12.346-8.633,15.764-5.739c3.057,2.483,3.119,7.069,1.32,10.632c-2.699,5.009-7.732,6.889-12.885,6.7
		c0.058,2.906,1.139,6.286,3.713,7.556c4.618,2.176,9.472-1.449,12.287-6.152H195.373z M177.391,39.191
		c9.469,0.307,10.549-11.172,9.055-12.385c-1.206-0.908-3.838,0.243-6.002,3.688c-1.259,1.934-2.334,4.65-2.994,8.031
		C177.449,38.77,177.391,39.012,177.391,39.191z"/>
	<path fill="#ED5E6B" d="M241.729,43.238c-4.804,12.925-22.478,16.368-19.126-0.243l3.182-15.702h-3.598l1.496-3.687h2.877
		l1.615-7.853l8.518-1.691l-1.86,9.544h4.854l-1.735,3.687h-3.774l-4.02,20.057c-1.381,7.067,7.129,1.806,9.168-4.111H241.729z"/>
	<path fill="#ED5E6B" d="M263.309,43.428c-4.677,8.697-9.582,10.927-16.42,10.747c-11.327-0.369-11.507-14.803-5.93-23.743
		c4.561-7.134,12.35-8.633,15.759-5.739c3.056,2.483,3.119,7.069,1.321,10.632c-2.694,5.009-7.732,6.889-12.887,6.7
		c0.063,2.906,1.136,6.286,3.713,7.556c4.62,2.176,9.475-1.449,12.289-6.152H263.309z M245.332,39.191
		c9.469,0.307,10.548-11.172,9.044-12.385c-1.187-0.908-3.833,0.243-5.988,3.688c-1.262,1.934-2.332,4.65-2.999,8.031
		C245.389,38.77,245.332,39.012,245.332,39.191z"/>
	<path fill="#ED5E6B" d="M296.827,43.238c-5.267,13.888-21.507,15.405-18.876-0.369c0.84-4.217,1.616-8.444,2.401-12.68
		c1.32-6.943-6.775-1.988-8.995,3.57l-3.774,20.046h-8.51l6.047-30.199h8.213l-0.899,4.53c6.474-7.364,17.861-7.131,15.344,6.467
		c-1.437,7.482-1.07,5.308-2.4,12.682c-1.312,7.429,7.193,1.809,9.12-4.047c0,0,0.657-1.386,1.633-1.271
		C297.181,42.091,296.827,43.238,296.827,43.238z"/>
	<g>
		<path fill="#ED5E6B" d="M205.211,25.37l0.362-1.87h-8.452l-8.12,40h8.416l2.578-11.987c1.321,1.448,4.975,2.662,7.433,2.662
			c2.34,0,4.435-0.792,6.056-2.113c1.557-1.089,2.699-2.537,3.597-4.289c1.855-3.329,2.761-7.4,2.816-11.26
			C219.954,28.175,214.563,19.028,205.211,25.37z M211.265,40.28c-0.539,2.894-1.562,5.559-2.756,7.247
			c-1.977,2.781-5.153,4.111-7.791,0.541l3.958-19.688C212.702,22.939,212.346,34.479,211.265,40.28z"/>
	</g>
</g>
</svg>
