<?xml version="1.0" encoding="UTF-8" standalone="no"?>
<svg
   xmlns:dc="http://purl.org/dc/elements/1.1/"
   xmlns:cc="http://creativecommons.org/ns#"
   xmlns:rdf="http://www.w3.org/1999/02/22-rdf-syntax-ns#"
   xmlns:svg="http://www.w3.org/2000/svg"
   xmlns="http://www.w3.org/2000/svg"
   xmlns:sodipodi="http://sodipodi.sourceforge.net/DTD/sodipodi-0.dtd"
   xmlns:inkscape="http://www.inkscape.org/namespaces/inkscape"
   xml:space="preserve"
   enable-background="new 0 0 300 76.833"
   viewBox="0 0 386.74916 132.26137"
   height="132.26137"
   width="386.74915"
   y="0px"
   x="0px"
   id="Layer_1"
   version="1.1"
   inkscape:version="0.91 r13725"
   sodipodi:docname="logo-zoetrecepten-wit-border.svg"
   inkscape:export-filename="/Users/thomaskrupers/Documents/Zoetrecepten/Logo/logo-zoetrecepten-zwart-border.png"
   inkscape:export-xdpi="90"
   inkscape:export-ydpi="90"><sodipodi:namedview
     pagecolor="#ffffff"
     bordercolor="#666666"
     borderopacity="1"
     objecttolerance="10"
     gridtolerance="10"
     guidetolerance="10"
     inkscape:pageopacity="0"
     inkscape:pageshadow="2"
     inkscape:window-width="1280"
     inkscape:window-height="751"
     id="namedview3357"
     showgrid="false"
     units="px"
     fit-margin-top="10"
     fit-margin-left="10"
     fit-margin-right="10"
     fit-margin-bottom="10"
     inkscape:zoom="1.6328077"
     inkscape:cx="208.90059"
     inkscape:cy="65.350125"
     inkscape:window-x="0"
     inkscape:window-y="23"
     inkscape:window-maximized="1"
     inkscape:current-layer="Layer_1" /><metadata
     id="metadata4343"><rdf:RDF><cc:Work
         rdf:about=""><dc:format>image/svg+xml</dc:format><dc:type
           rdf:resource="http://purl.org/dc/dcmitype/StillImage" /><dc:title></dc:title></cc:Work></rdf:RDF></metadata><defs
     id="defs4341" /><path
     style="fill:none;stroke:#c5e3dc;stroke-width:3;stroke-miterlimit:10"
     id="path4251"
     d="M 331.54045,220.51102"
     stroke-miterlimit="10"
     inkscape:connector-curvature="0" /><path
     style="fill:#ffffff;fill-opacity:1;stroke:#c5e3dc;stroke-width:3;stroke-miterlimit:10"
     id="path4253"
     d="M 126.51045,50.511019"
     stroke-miterlimit="10"
     inkscape:connector-curvature="0"
     inkscape:export-xdpi="90"
     inkscape:export-ydpi="90" /><g
     style="fill:#ffffff;fill-opacity:1"
     transform="translate(37.419453,31.607019)"
     id="g4255"
     inkscape:export-xdpi="90"
     inkscape:export-ydpi="90"><path
       style="fill:#ffffff;fill-opacity:1"
       id="path4257"
       d="M 40.75,12.637"
       inkscape:connector-curvature="0" /></g><line
     style="fill:#ffffff;fill-opacity:1;stroke:#aadbcb;stroke-miterlimit:10"
     id="line4259"
     y2="41.496017"
     x2="240.34145"
     y1="41.496017"
     x1="240.34145"
     stroke-miterlimit="10"
     inkscape:export-xdpi="90"
     inkscape:export-ydpi="90" /><g
     style="fill:#ffffff;fill-opacity:1"
     transform="translate(37.419453,31.607019)"
     id="g4313"
     inkscape:export-xdpi="90"
     inkscape:export-ydpi="90"><path
       style="fill:#ffffff;fill-opacity:1"
       id="path4315"
       d="M 41.389,8.838 15.475,48.288 C 22.06,45.971 33.28,45.544 39.194,48.349 L 33.706,54.63 C 26.511,51.459 12.365,52.8 1.877,54.751 11.267,41.337 20.108,26.947 29.193,13.472 l -17.742,0 2.805,-4.634 27.133,0 z"
       inkscape:connector-curvature="0" /><path
       style="fill:#ffffff;fill-opacity:1"
       id="path4317"
       d="M 70.835,55.117 C 69.189,55.056 67.604,54.568 65.957,53.775 64.311,52.861 62.787,51.58 61.933,49.629 54.86,57.312 43.519,56.702 40.592,49.02 40.104,47.739 39.86,46.032 39.982,44.142 41.08,23.837 59.86,19.569 65.652,28.105 c 4.39,-4.573 10.426,-5.244 13.963,-2.805 3.598,2.622 4.085,7.378 2.378,10.915 -2.622,5.305 -8.17,7.256 -13.963,7.012 0.122,1.097 0.305,2.073 0.61,2.866 0.427,1.219 1.036,2.195 1.707,2.927 0.854,0.915 1.707,1.463 2.5,1.707 4.329,1.524 8.415,-4.207 10.67,-7.561 l 0.976,1.951 c -2.622,5.305 -7.866,10.122 -13.658,10 z M 53.762,36.215 57.116,32.007 c 0.793,0.732 1.646,1.342 2.5,1.708 -1.341,-7.683 -8.719,-10.244 -11.829,5.792 -0.427,2.561 -0.366,4.695 0.061,6.402 3.049,11.28 9.878,3.049 11.707,-6.463 0,-0.061 0.061,-0.122 0.061,-0.183 -1.951,-0.426 -3.903,-1.402 -5.854,-3.048 z m 14.207,4.207 c 10.854,0.244 11.036,-11.707 9.146,-12.865 -5.061,-3.11 -8.658,7.744 -9.085,12.134 0,0.183 -0.061,0.488 -0.061,0.731 z"
       inkscape:connector-curvature="0" /><path
       style="fill:#ffffff;fill-opacity:1"
       id="path4319"
       d="M 103.634,44.02 C 98.756,57.068 80.769,60.544 84.183,43.776 l 3.231,-15.853 -3.658,0 1.524,-3.72 2.927,0 1.646,-7.926 8.659,-1.708 -1.891,9.634 4.939,0 -1.768,3.72 -3.841,0 -4.085,20.243 c -1.402,7.134 7.256,1.83 9.329,-4.146 l 2.439,0 z"
       inkscape:connector-curvature="0" /></g><path
     style="fill:#ffffff;fill-opacity:1"
     id="path4321"
     d="m 166.44245,57.208019 -3.925,4.847 c -4.86,-3.563 -10.938,0.892 -13.995,5.91 l -3.355,17.448 -8.456,0 6.056,-30.199 8.209,0 -1.258,6.583 c 3.78,-6.342 8.874,-9.3 16.724,-4.589 z"
     inkscape:connector-curvature="0"
     inkscape:export-xdpi="90"
     inkscape:export-ydpi="90" /><path
     style="fill:#ffffff;fill-opacity:1"
     id="path4323"
     d="m 186.13345,75.035019 c -4.675,8.697 -9.588,10.927 -16.424,10.747 -11.324,-0.369 -11.507,-14.803 -5.93,-23.743 4.552,-7.134 12.347,-8.633 15.76,-5.739 3.057,2.483 3.119,7.069 1.32,10.632 -2.7,5.009 -7.731,6.889 -12.886,6.7 0.058,2.906 1.142,6.286 3.717,7.556 4.614,2.176 9.469,-1.449 12.283,-6.152 l 2.16,0 z m -17.976,-4.237 c 9.462,0.307 10.543,-11.172 9.048,-12.385 -1.2,-0.908 -3.837,0.243 -5.996,3.688 -1.259,1.934 -2.338,4.65 -2.994,8.031 0,0.245 -0.058,0.487 -0.058,0.666 z"
     inkscape:connector-curvature="0"
     inkscape:export-xdpi="90"
     inkscape:export-ydpi="90" /><path
     style="fill:#ffffff;fill-opacity:1"
     id="path4325"
     d="m 209.22545,75.035019 c -3.539,6.225 -8.87,10.505 -15.466,10.747 -8.691,0.359 -11.267,-7.798 -9.587,-16.008 1.136,-5.802 4.314,-11.783 9.708,-14.022 3.177,-1.322 6.296,-1.08 8.389,0.611 3.061,2.42 3.658,7.186 1.859,10.568 -0.24,0.54 -0.54,0.962 -0.839,1.447 l -2.757,-4.894 c 1.379,-2.652 1.199,-4.585 0.478,-5.071 -0.719,-0.475 -1.978,-0.298 -3.298,0.666 -3.412,2.48 -5.152,7.428 -5.75,11.297 -0.898,6.222 0.658,9.848 3.416,10.936 4.314,1.691 8.689,-2.536 11.624,-6.277 l 2.223,0 z"
     inkscape:connector-curvature="0"
     inkscape:export-xdpi="90"
     inkscape:export-ydpi="90" /><path
     style="fill:#ffffff;fill-opacity:1"
     id="path4327"
     d="m 232.79245,75.035019 c -4.682,8.697 -9.593,10.927 -16.426,10.747 -11.328,-0.369 -11.506,-14.803 -5.934,-23.743 4.557,-7.134 12.346,-8.633 15.764,-5.739 3.057,2.483 3.119,7.069 1.32,10.632 -2.699,5.009 -7.732,6.889 -12.885,6.7 0.058,2.906 1.139,6.286 3.713,7.556 4.618,2.176 9.472,-1.449 12.287,-6.152 l 2.161,0 z m -17.982,-4.237 c 9.469,0.307 10.549,-11.172 9.055,-12.385 -1.206,-0.908 -3.838,0.243 -6.002,3.688 -1.259,1.934 -2.334,4.65 -2.994,8.031 -0.001,0.245 -0.059,0.487 -0.059,0.666 z"
     inkscape:connector-curvature="0"
     inkscape:export-xdpi="90"
     inkscape:export-ydpi="90" /><path
     style="fill:#ffffff;fill-opacity:1"
     id="path4329"
     d="m 279.14845,74.845019 c -4.804,12.925 -22.478,16.368 -19.126,-0.243 l 3.182,-15.702 -3.598,0 1.496,-3.687 2.877,0 1.615,-7.853 8.518,-1.691 -1.86,9.544 4.854,0 -1.735,3.687 -3.774,0 -4.02,20.057 c -1.381,7.067 7.129,1.806 9.168,-4.111 l 2.403,0 z"
     inkscape:connector-curvature="0"
     inkscape:export-xdpi="90"
     inkscape:export-ydpi="90" /><path
     style="fill:#ffffff;fill-opacity:1"
     id="path4331"
     d="m 300.72845,75.035019 c -4.677,8.697 -9.582,10.927 -16.42,10.747 -11.327,-0.369 -11.507,-14.803 -5.93,-23.743 4.561,-7.134 12.35,-8.633 15.759,-5.739 3.056,2.483 3.119,7.069 1.321,10.632 -2.694,5.009 -7.732,6.889 -12.887,6.7 0.063,2.906 1.136,6.286 3.713,7.556 4.62,2.176 9.475,-1.449 12.289,-6.152 l 2.155,0 z m -17.977,-4.237 c 9.469,0.307 10.548,-11.172 9.044,-12.385 -1.187,-0.908 -3.833,0.243 -5.988,3.688 -1.262,1.934 -2.332,4.65 -2.999,8.031 0,0.245 -0.057,0.487 -0.057,0.666 z"
     inkscape:connector-curvature="0"
     inkscape:export-xdpi="90"
     inkscape:export-ydpi="90" /><path
     style="fill:#ffffff;fill-opacity:1"
     id="path4333"
     d="m 334.24645,74.845019 c -5.267,13.888 -21.507,15.405 -18.876,-0.369 0.84,-4.217 1.616,-8.444 2.401,-12.68 1.32,-6.943 -6.775,-1.988 -8.995,3.57 l -3.774,20.046 -8.51,0 6.047,-30.199 8.213,0 -0.899,4.53 c 6.474,-7.364 17.861,-7.131 15.344,6.467 -1.437,7.482 -1.07,5.308 -2.4,12.682 -1.312,7.429 7.193,1.809 9.12,-4.047 0,0 0.657,-1.386 1.633,-1.271 1.05,0.124 0.696,1.271 0.696,1.271 z"
     inkscape:connector-curvature="0"
     inkscape:export-xdpi="90"
     inkscape:export-ydpi="90" /><g
     style="fill:#ffffff;fill-opacity:1"
     transform="translate(37.419453,31.607019)"
     id="g4335"
     inkscape:export-xdpi="90"
     inkscape:export-ydpi="90"><path
       style="fill:#ffffff;fill-opacity:1"
       id="path4337"
       d="m 205.211,25.37 0.362,-1.87 -8.452,0 -8.12,40 8.416,0 2.578,-11.987 c 1.321,1.448 4.975,2.662 7.433,2.662 2.34,0 4.435,-0.792 6.056,-2.113 1.557,-1.089 2.699,-2.537 3.597,-4.289 1.855,-3.329 2.761,-7.4 2.816,-11.26 0.057,-8.338 -5.334,-17.485 -14.686,-11.143 z m 6.054,14.91 c -0.539,2.894 -1.562,5.559 -2.756,7.247 -1.977,2.781 -5.153,4.111 -7.791,0.541 l 3.958,-19.688 c 8.026,-5.441 7.67,6.099 6.589,11.9 z"
       inkscape:connector-curvature="0" /></g><path
     style="fill:none;fill-rule:evenodd;stroke:#ffffff;stroke-width:2;stroke-linecap:butt;stroke-linejoin:miter;stroke-miterlimit:4;stroke-dasharray:none;stroke-opacity:1"
     d="m 370.56397,83.883106 0,37.378264 L 11,121.26137 11,11 l 359.56397,0 0,42.708678"
     id="path3359"
     inkscape:connector-curvature="0"
     sodipodi:nodetypes="cccccc"
     inkscape:export-xdpi="90"
     inkscape:export-ydpi="90" /><g
     id="g4228"
     transform="matrix(1.0990044,0,0,1.123404,10.917675,10.535606)"
     inkscape:export-xdpi="90"
     inkscape:export-ydpi="90"
     style="fill:#ffffff;fill-opacity:1"><rect
       transform="matrix(0.70710678,-0.70710678,0.70710678,0.70710678,0,0)"
       y="264.5047"
       x="190.48782"
       height="7.082541"
       width="7.082541"
       id="rect4161"
       style="fill:#ffffff;fill-opacity:1;stroke:none;stroke-width:1.25;stroke-miterlimit:4;stroke-dasharray:none;stroke-opacity:1" /><path
       transform="matrix(-0.72017382,0.69379367,-0.69657586,-0.71748315,0,0)"
       d="m -194.37916,-260.93082 a 3.5406866,3.9770703 0 0 1 -3.48538,3.97659 3.5406866,3.9770703 0 0 1 -3.59426,-3.85236"
       sodipodi:open="true"
       sodipodi:end="3.1103528"
       sodipodi:start="0"
       sodipodi:ry="3.9770703"
       sodipodi:rx="3.5406866"
       sodipodi:cy="-260.93082"
       sodipodi:cx="-197.91985"
       sodipodi:type="arc"
       id="path4167"
       style="fill:#ffffff;fill-opacity:1;stroke:none;stroke-width:1.25;stroke-miterlimit:4;stroke-dasharray:none;stroke-opacity:1" /><path
       style="fill:#ffffff;fill-opacity:1;stroke:none;stroke-width:1.25;stroke-miterlimit:4;stroke-dasharray:none;stroke-opacity:1"
       id="path4218"
       sodipodi:type="arc"
       sodipodi:cx="-265.07501"
       sodipodi:cy="202.37798"
       sodipodi:rx="3.5406866"
       sodipodi:ry="3.9770703"
       sodipodi:start="0"
       sodipodi:end="3.1103528"
       sodipodi:open="true"
       d="m -261.53433,202.37798 a 3.5406866,3.9770703 0 0 1 -3.48538,3.97658 3.5406866,3.9770703 0 0 1 -3.59426,-3.85236"
       transform="matrix(-0.69379367,-0.72017382,0.71748315,-0.69657586,0,0)" /></g></svg>