<?xml version="1.0" encoding="utf-8"?>
<!-- Generator: Adobe Illustrator 15.1.0, SVG Export Plug-In . SVG Version: 6.00 Build 0)  -->
<!DOCTYPE svg PUBLIC "-//W3C//DTD SVG 1.1//EN" "http://www.w3.org/Graphics/SVG/1.1/DTD/svg11.dtd">
<svg version="1.1" id="Layer_1" xmlns="http://www.w3.org/2000/svg" xmlns:xlink="http://www.w3.org/1999/xlink" x="0px" y="0px"
	 width="134.06px" height="188.988px" viewBox="0 0 134.06 188.988" enable-background="new 0 0 134.06 188.988"
	 xml:space="preserve">
<g>
	<path fill="#215271" d="M64.707,109.36c0.637,3.738,4.44,1.553,5.559,0.701c0.169,1.396,1.05,5.405,4.315,3.494
		c3.496-2.046-1.333-10.1-1.564-10.078C72.875,103.296,64.009,105.274,64.707,109.36z"/>
	<path fill="#EFEEEF" d="M91.639,120.852c3.91,0.088,2.275-4.131,1.581-5.412c1.448,0.105,5.671,0.004,4.233-3.625
		c-1.54-3.886-10.496-0.634-10.506-0.403C86.737,111.521,87.371,120.753,91.639,120.852z"/>
	<path fill="#A8D6C3" d="M81.188,146.154c2.053,2.52,3.972-0.724,4.446-1.832c0.713,0.968,3.062,3.588,4.692,0.777
		c1.746-3.012-5.253-6.976-5.418-6.86C84.725,138.165,78.947,143.399,81.188,146.154z"/>
	<g>
		<path fill="#FCFCFC" d="M80.537,58.261c0,0-4.546,25.165-29.324,21.154c0,0-7.194-1.585-6.521-5.739
			c0,0-35.064-26.942-33.745-35.101C12.268,30.417,42.451,6.939,52.54,8.573c10.089,1.632,25.618,39.836,25.081,43.15
			C77.621,51.723,80.417,51.229,80.537,58.261z"/>
		<path fill="#5F6E76" d="M80.836,58.287c-0.892,4.09-2.642,7.994-4.99,11.454c-2.341,3.449-5.515,6.454-9.341,8.266
			c-3.802,1.851-8.144,2.502-12.352,2.251c-1.072-0.065-2.076-0.155-3.198-0.349c-1.053-0.254-2.072-0.597-3.061-1.054
			c-0.979-0.464-1.951-1.034-2.75-1.895c-0.809-0.828-1.335-2.152-1.114-3.391l0.252,0.637c-5.123-3.878-10.087-7.933-14.958-12.119
			c-4.848-4.211-9.623-8.525-13.939-13.379c-1.072-1.221-2.109-2.483-3.062-3.839c-0.933-1.372-1.857-2.782-2.337-4.612
			c-0.108-0.463-0.182-0.962-0.147-1.508c0.008-0.138,0.024-0.27,0.05-0.419c0.014-0.087,0.037-0.204,0.07-0.347
			c0.061-0.25,0.125-0.469,0.204-0.69c0.309-0.875,0.727-1.633,1.171-2.359c0.898-1.443,1.93-2.732,3-3.976
			c4.334-4.913,9.287-9.102,14.469-12.985c2.602-1.93,5.285-3.755,8.086-5.419c2.807-1.651,5.691-3.216,8.854-4.344
			c1.587-0.549,3.234-1.023,5.065-1.145c0.917-0.05,1.888-0.014,2.907,0.319c0.956,0.318,1.766,0.792,2.499,1.308
			c1.458,1.044,2.641,2.266,3.717,3.542c1.074,1.277,2.043,2.607,2.958,3.963c3.609,5.455,6.374,11.299,8.907,17.212
			c1.257,2.962,2.436,5.954,3.511,8.982c0.538,1.515,1.041,3.042,1.525,4.576c0.238,0.769,0.464,1.542,0.662,2.325
			c0.175,0.8,0.42,1.541,0.358,2.469L77.58,51.49c0.834-0.052,1.444,0.461,1.848,1.009c0.405,0.563,0.805,1.203,0.978,1.843
			C80.742,55.631,81,56.951,81,58.258v0.017L80.836,58.287z M80.394,58.248c-0.042-1.287-0.159-2.582-0.51-3.804
			c-0.179-0.609-0.423-1.205-0.793-1.693c-0.349-0.48-0.928-0.854-1.429-0.794l-0.283,0.034l0.009-0.305
			c0.019-0.677-0.238-1.499-0.446-2.242c-0.226-0.759-0.482-1.513-0.75-2.263c-0.53-1.502-1.141-2.977-1.765-4.445
			c-1.255-2.933-2.609-5.825-4.039-8.673c-2.879-5.68-6.028-11.248-9.67-16.356c-1.819-2.518-3.834-5.001-6.145-6.675
			c-0.576-0.401-1.172-0.726-1.74-0.908c-0.506-0.168-1.165-0.213-1.84-0.165c-1.37,0.098-2.834,0.508-4.26,1.021
			c-2.864,1.046-5.677,2.464-8.394,4.039c-2.718,1.582-5.368,3.309-7.949,5.138c-5.132,3.68-10.091,7.717-14.326,12.33
			c-1.044,1.157-2.034,2.365-2.848,3.629c-0.401,0.63-0.764,1.28-0.997,1.914c-0.244,0.661-0.294,1.086-0.144,1.747
			c0.302,1.29,1.1,2.656,1.951,3.923c0.867,1.278,1.844,2.51,2.864,3.71c4.119,4.788,8.797,9.161,13.542,13.417
			c4.762,4.246,9.683,8.338,14.667,12.32l0.325,0.26l-0.072,0.377c-0.161,0.834,0.118,1.655,0.726,2.342
			c0.6,0.689,1.438,1.233,2.321,1.677c0.888,0.441,1.845,0.795,2.808,1.054c0.922,0.183,2,0.319,3,0.416
			c4.066,0.382,8.268-0.074,12.023-1.77c3.753-1.68,6.964-4.51,9.301-7.921C77.853,66.163,79.514,62.277,80.394,58.248z"/>
	</g>
	<path fill="#B8DDCF" d="M81.458,94.625c4.24,1.606,4.302-3.65,4.105-5.317c1.539,0.671,6.203,2.191,6.218-2.34
		c0.017-4.853-11.214-4.748-11.334-4.492C80.174,82.514,76.826,92.867,81.458,94.625z"/>
	<g>
		<path fill="#FCFCFC" d="M64.603,71.891c0,0,5.684,0.073,2.444-3.644"/>
		<path fill="#5F6E76" d="M64.603,71.891c0.535-0.14,1.049-0.284,1.541-0.436c0.482-0.163,0.966-0.349,1.269-0.64
			c0.312-0.27,0.373-0.649,0.25-1.127c-0.129-0.463-0.37-0.947-0.615-1.441c0.452,0.317,0.87,0.705,1.132,1.246
			c0.134,0.268,0.216,0.587,0.185,0.935c-0.035,0.349-0.229,0.679-0.467,0.904c-0.5,0.439-1.082,0.59-1.637,0.662
			C65.702,72.064,65.142,72.024,64.603,71.891z"/>
	</g>
	<g>
		<path fill="#FCFCFC" d="M73.604,63.469c0,0,3.471,0.029,1.504-2.223"/>
		<path fill="#5F6E76" d="M73.604,63.469c0.324-0.141,0.629-0.265,0.916-0.375c0.28-0.118,0.555-0.239,0.705-0.387
			c0.149-0.131,0.195-0.26,0.153-0.545c-0.047-0.266-0.161-0.58-0.27-0.916c0.315,0.159,0.607,0.375,0.789,0.726
			c0.098,0.17,0.155,0.386,0.136,0.63c-0.026,0.245-0.167,0.474-0.328,0.625c-0.342,0.292-0.715,0.379-1.067,0.405
			C74.284,63.661,73.934,63.602,73.604,63.469z"/>
	</g>
	<g>
		<path fill="#FCFCFC" d="M55.262,74.985c0,0,4.336,3.674,4.207-1.252"/>
		<path fill="#5F6E76" d="M55.262,74.985c0.501,0.232,0.99,0.449,1.466,0.645c0.475,0.182,0.967,0.347,1.386,0.315
			c0.413-0.009,0.702-0.263,0.911-0.709c0.196-0.439,0.319-0.965,0.444-1.503c0.147,0.532,0.221,1.098,0.079,1.682
			c-0.068,0.292-0.209,0.59-0.454,0.838c-0.25,0.246-0.609,0.377-0.936,0.398c-0.664,0.021-1.209-0.234-1.684-0.532
			C55.999,75.818,55.592,75.431,55.262,74.985z"/>
	</g>
	<path fill="#EFEEEF" d="M107.69,153.664c2.873,2.659,4.429-1.589,4.752-3.01c1.02,1.037,4.25,3.762,5.566,0.088
		c1.407-3.94-7.454-7.437-7.619-7.269C110.163,143.414,104.553,150.759,107.69,153.664z"/>
</g>
</svg>
